<svg xmlns="http://www.w3.org/2000/svg" width="524" height="532" viewBox="0 0 524 532" version="1.1">
	<path d="M 157.071 42.749 C 157.507 50.964, 158.214 54.856, 160.071 59.249 C 162.540 65.092, 163.612 65.813, 167.072 63.962 C 168.853 63.008, 168.893 62.693, 167.559 60.113 C 165.897 56.899, 163.372 44.295, 164.220 43.447 C 165.356 42.311, 171.794 45.886, 180.304 52.379 L 189.027 59.035 190.145 56.581 C 191.715 53.136, 190.904 51.741, 184.303 46.537 C 178.509 41.969, 160.363 32.001, 157.835 31.999 C 156.769 31.997, 156.615 34.162, 157.071 42.749 M 197.793 46.083 C 196.382 47.962, 194.215 51.516, 192.976 53.981 C 190.790 58.330, 186 71.510, 186 73.175 C 186 73.629, 187.558 74, 189.461 74 C 192.604 74, 193.022 73.654, 193.996 70.250 C 194.587 68.188, 196.577 63.582, 198.418 60.015 L 201.766 53.529 207.383 65.213 C 210.472 71.639, 213 77.370, 213 77.949 C 213 79.672, 214.508 79.153, 216.900 76.607 L 219.148 74.214 216.870 68.857 C 214.096 62.334, 207.148 50.729, 203.235 46.083 L 200.357 42.665 197.793 46.083 M 125.079 46.605 C 121.547 47.377, 118.417 48.250, 118.123 48.544 C 117.029 49.637, 121.698 56.655, 127.928 63.282 C 135.830 71.688, 137.541 72.725, 139.938 70.556 C 141.610 69.043, 141.352 68.580, 135.355 62.310 C 131.860 58.657, 129 55.314, 129 54.881 C 129 53.510, 136.184 51.988, 145.750 51.332 L 155 50.698 155 47.849 L 155 45 143.250 45.100 C 136.787 45.156, 128.610 45.833, 125.079 46.605 M 171.151 52.500 C 173.156 57.498, 175.642 61, 177.185 61 C 179.914 61, 179.417 59.805, 174.875 55.453 C 172.606 53.279, 170.930 51.950, 171.151 52.500 M 111.534 61.515 C 107.152 63.421, 101.527 66.316, 99.034 67.949 C 96.540 69.582, 92.250 72.135, 89.500 73.622 L 84.500 76.327 93.995 80.740 C 103.011 84.930, 112.375 88, 116.143 88 C 117.917 88, 119.558 84.711, 118.576 83.122 C 118.271 82.630, 116.416 81.925, 114.453 81.557 C 112.490 81.189, 108.437 79.951, 105.446 78.806 L 100.007 76.725 105.073 72.946 C 107.859 70.867, 113.145 67.917, 116.819 66.391 C 120.494 64.865, 123.701 63.464, 123.947 63.278 C 124.193 63.092, 123.293 61.839, 121.947 60.495 L 119.500 58.050 111.534 61.515 M 138.292 58.643 C 138.590 59.114, 140.448 60.359, 142.420 61.409 C 145.552 63.076, 146.354 63.150, 148.753 61.988 L 151.500 60.658 146.839 59.924 C 144.275 59.521, 141.182 58.875, 139.964 58.488 C 138.746 58.102, 137.994 58.171, 138.292 58.643 M 146.550 67.250 C 138.725 75.130, 132 84.892, 132 88.372 C 132 90.523, 140.946 90.572, 149.867 88.470 C 159.412 86.219, 160.296 85.457, 155.633 83.499 C 152.323 82.109, 151.065 82.055, 146.901 83.122 C 144.225 83.808, 141.751 84.085, 141.404 83.737 C 140.254 82.587, 144.956 76.271, 151.562 70.091 C 155.143 66.741, 158.497 64, 159.015 64 C 159.552 64, 159.467 62.925, 158.818 61.500 C 158.192 60.125, 157.018 59, 156.211 59 C 155.403 59, 151.056 62.712, 146.550 67.250 M 171.909 63.896 C 165.459 65.960, 158.424 70.519, 154.508 75.173 L 151.786 78.408 153.934 80.148 C 156.566 82.279, 166.288 86, 169.225 86 C 171.297 86, 171.277 85.899, 168.689 83.198 C 166.621 81.038, 166.276 80.124, 167.189 79.211 C 168.102 78.298, 167.635 77.769, 165.155 76.904 C 162.703 76.049, 162.189 75.477, 162.999 74.501 C 164.967 72.129, 174.246 68.822, 179.896 68.477 C 185.080 68.161, 185.594 67.906, 186.753 65.068 L 188.006 62 182.753 62.054 C 179.864 62.083, 174.984 62.913, 171.909 63.896 M 125.886 69.750 C 119.257 86.880, 118.620 90.566, 120.461 101.113 C 121.238 105.565, 122.113 109.447, 122.406 109.739 C 123.314 110.648, 127.630 107.295, 135.212 99.790 L 142.500 92.577 139.113 92.215 C 136.242 91.908, 135.071 92.495, 131.434 96.065 L 127.143 100.277 126.465 96.665 C 125.673 92.441, 128.179 80.033, 130.905 74.687 C 132.713 71.140, 132.709 71.075, 130.553 69.049 C 127.707 66.376, 127.160 66.458, 125.886 69.750 M 201.340 68.500 C 201.651 69.600, 202.221 71.850, 202.606 73.500 C 203.341 76.641, 204.587 77.959, 206.845 77.985 C 207.774 77.995, 207.346 76.531, 205.462 73.250 C 202.190 67.553, 200.533 65.644, 201.340 68.500 M 227 70.408 C 222.104 74.063, 216.415 79.878, 210.638 87.135 L 206.947 91.770 210.177 93.815 L 213.407 95.860 215.088 93.180 C 216.013 91.706, 219.111 88.250, 221.971 85.500 L 227.172 80.500 226.836 93.250 L 226.500 106 229.625 106 C 232.325 106, 232.835 105.575, 233.375 102.875 C 234.804 95.729, 233.792 66.957, 232.114 67.025 C 231.776 67.038, 229.475 68.561, 227 70.408 M 152.150 74.006 C 149.868 75.660, 148 77.246, 148 77.532 C 148 78.502, 153.495 75.216, 155.407 73.102 C 158.042 70.192, 157.028 70.473, 152.150 74.006 M 117.298 74.404 C 112.398 76.188, 112.253 77, 116.833 77 C 119.125 77, 121 76.812, 121 76.582 C 121 76.352, 121.273 75.452, 121.607 74.582 C 122.295 72.788, 121.793 72.768, 117.298 74.404 M 174.335 74.103 C 176.724 74.664, 178.798 74.638, 179.835 74.032 C 181.049 73.324, 180.011 73.080, 176 73.131 C 170.516 73.201, 170.511 73.204, 174.335 74.103 M 179.326 76.016 C 174.746 76.953, 169 79.618, 169 80.805 C 169 82.925, 187.432 98.901, 188.568 97.765 C 189.665 96.668, 185.818 88.796, 182.808 85.980 L 179.500 82.886 188.500 83.276 C 195.289 83.570, 198.696 84.239, 202.370 85.999 L 207.240 88.333 209.098 85.917 C 210.120 84.587, 210.966 83.218, 210.978 82.873 C 211.007 82.037, 202.507 78.442, 197.500 77.173 C 191.122 75.557, 183.836 75.093, 179.326 76.016 M 91.618 91.046 C 85.821 97.308, 78 111.485, 78 115.732 L 78 118.233 87.750 117.743 C 93.112 117.474, 99.866 116.503, 102.759 115.585 C 107.714 114.014, 107.980 113.761, 107.370 111.209 C 106.397 107.134, 106.083 106.899, 103.698 108.460 C 101.542 109.871, 90.884 113, 88.235 113 C 86.104 113, 93.370 100.106, 99.167 93.602 C 101.958 90.470, 104.075 87.771, 103.871 87.603 C 103.667 87.434, 102.058 86.811, 100.295 86.216 C 97.183 85.167, 96.932 85.306, 91.618 91.046 M 188.531 90.250 C 189.970 98.892, 191.239 101.226, 195.250 102.606 C 199.266 103.987, 199.571 103.632, 197.972 99.426 C 197.407 97.939, 197.138 96.529, 197.375 96.292 C 198.332 95.334, 206.664 100.515, 211.455 105.046 L 216.557 109.871 219.755 108.322 C 223.542 106.488, 223.100 105.432, 216.094 99.579 C 210.155 94.617, 204.003 91.116, 196.324 88.329 C 187.754 85.218, 187.696 85.232, 188.531 90.250 M 392.500 87.223 C 390.850 87.809, 386.095 90.240, 381.934 92.626 L 374.368 96.963 361.934 96.731 C 349.735 96.504, 349.377 96.561, 342.989 99.717 C 337.780 102.290, 334.537 103.112, 326.779 103.825 C 315.389 104.872, 312 106.531, 312 111.055 C 312 113.193, 312.604 114.288, 314.088 114.837 C 315.923 115.516, 315.992 115.762, 314.652 116.874 C 313.528 117.806, 312.603 117.858, 311.130 117.069 C 308.555 115.692, 303.706 115.694, 302.326 117.074 C 301.736 117.664, 297.390 118.500, 292.670 118.930 C 287.690 119.384, 283.058 120.388, 281.632 121.321 C 279.336 122.826, 278.924 122.792, 275.296 120.805 C 271.235 118.580, 266.637 118.791, 265.780 121.241 C 265.538 121.934, 265.672 126.803, 266.077 132.063 C 266.820 141.710, 269.762 150.588, 272.574 151.667 C 273.349 151.964, 274.119 155.088, 274.550 159.687 L 275.256 167.220 277.907 160.860 L 280.558 154.500 288.537 153.835 C 292.926 153.470, 299.953 152.290, 304.153 151.214 L 311.790 149.258 310.395 152.597 C 309.628 154.433, 309 158.245, 309 161.067 C 309 165.488, 308.581 166.589, 305.975 169.023 C 302.376 172.386, 296.366 173.864, 289.500 173.075 L 284.500 172.500 283.967 166 C 283.385 158.903, 283.497 158.837, 279.555 168.607 C 278.211 171.937, 277.151 172.960, 273.949 174.017 C 270.458 175.169, 270 175.687, 270 178.482 C 270 183.265, 267.061 190.897, 264.740 192.139 C 262.831 193.161, 262.807 193.313, 264.423 194.217 C 266.934 195.622, 271.705 194.463, 281.737 190.010 C 286.589 187.856, 292.436 185.794, 294.732 185.427 C 307.471 183.390, 307.168 190.517, 294.213 197.629 C 275.321 208.002, 260.269 217.399, 249.068 225.815 C 230.632 239.666, 226.803 241.358, 205.758 244.956 C 199.333 246.054, 191.374 247.864, 188.070 248.976 C 180.434 251.549, 171.850 251.569, 166.250 249.027 C 163.913 247.966, 162 246.824, 162 246.490 C 162 246.156, 163.297 244.222, 164.883 242.191 C 168.447 237.627, 169.305 234.173, 167.884 230.097 C 166.597 226.405, 164.377 225.002, 159.816 224.996 C 157.992 224.994, 154.286 223.869, 151.581 222.496 C 145.314 219.317, 138.505 219.191, 132.710 222.149 C 128.998 224.043, 128.737 224.390, 130.500 225.078 C 131.600 225.508, 133.535 225.891, 134.800 225.930 C 136.064 225.968, 138.385 226.665, 139.957 227.478 C 142.534 228.810, 142.764 229.339, 142.294 232.848 C 141.981 235.180, 142.218 237.017, 142.886 237.429 C 143.499 237.808, 144 238.528, 144 239.029 C 144 239.530, 142.362 238.828, 140.360 237.470 C 136.491 234.844, 133.084 234.316, 131.330 236.070 C 130.742 236.658, 127.578 237.249, 124.300 237.383 C 117.100 237.677, 111.976 240.493, 108.436 246.101 C 105.027 251.501, 105.393 252.430, 109.783 249.525 C 111.864 248.148, 115.722 246.726, 118.356 246.365 L 123.145 245.708 122.461 249.359 C 121.969 251.981, 122.238 253.715, 123.419 255.517 C 125.019 257.959, 124.989 258.054, 122.283 259.082 C 118.761 260.422, 116.003 262.893, 114.945 265.657 C 114.462 266.919, 112.880 268.087, 111.133 268.471 C 109.490 268.832, 106.988 270.285, 105.573 271.700 C 103.472 273.800, 103 275.222, 103 279.445 C 103 282.290, 103.605 285.446, 104.345 286.458 C 105.588 288.157, 105.742 288.042, 106.361 284.947 C 107.060 281.451, 110.506 277, 112.514 277 C 113.155 277, 114.193 278.128, 114.822 279.508 C 115.450 280.887, 117.532 282.763, 119.447 283.676 C 122.458 285.112, 123.512 285.163, 127.215 284.056 C 132.187 282.569, 137 279.408, 137 277.631 C 137 275.730, 145.589 272, 149.968 272 C 155.224 272, 155.887 273.561, 151.259 275.041 C 149.192 275.702, 145.991 277.153, 144.147 278.267 C 135.228 283.650, 134.551 295.871, 143.019 298.629 C 145.798 299.534, 146.650 300.451, 147.312 303.249 C 147.766 305.169, 149.474 308.261, 151.108 310.120 L 154.079 313.500 153.447 309.221 C 152.461 302.551, 154.524 295.890, 158.320 293.486 C 160.674 291.996, 161.780 290.307, 162.579 286.986 C 163.461 283.319, 164.374 282.089, 167.579 280.251 C 173.802 276.682, 178.803 275.624, 183.210 276.945 C 188.540 278.542, 188.239 281.236, 182.072 287.117 C 177.210 291.755, 175.013 296.383, 175.009 302 C 175.007 304.471, 175.029 304.465, 176.863 301.457 C 179.608 296.955, 184.542 293.193, 189.295 291.977 C 191.608 291.385, 195.398 290.280, 197.718 289.522 L 201.936 288.143 198.968 293.402 C 197.229 296.484, 196.016 300.077, 196.039 302.081 L 196.078 305.500 197.583 302.030 C 199.651 297.263, 201.724 295.177, 207.107 292.447 C 213.744 289.082, 218.025 285.162, 220.082 280.568 L 221.880 276.553 222.940 279.342 C 223.523 280.875, 224 282.535, 224 283.030 C 224 284.836, 230.555 291.334, 233.702 292.649 C 238.537 294.669, 238.964 294.353, 236.892 290.289 C 235.461 287.481, 235 284.436, 235 277.789 C 235 272.955, 235.345 269, 235.766 269 C 236.188 269, 237.968 271.399, 239.722 274.331 C 242.839 279.543, 251.004 288, 252.918 288 C 253.448 288, 253.236 286.762, 252.448 285.250 C 250.517 281.546, 251.374 277.392, 256.267 266.750 C 259.902 258.845, 262 256.055, 262 259.127 C 262 259.747, 263.379 263.055, 265.063 266.477 C 269.722 275.940, 275.417 280.789, 291.500 288.986 C 309.504 298.162, 326.581 309.527, 331.889 315.867 C 338.514 323.780, 341.320 330.985, 341.825 341.386 C 342.532 355.918, 339.281 365.897, 327.778 384.500 C 320.835 395.728, 319.716 399.469, 321.381 405.887 C 323.036 412.268, 327.297 419.368, 331.272 422.368 C 337.545 427.101, 347.593 428.230, 358.500 425.427 C 361.800 424.578, 365.498 423.636, 366.717 423.332 C 370.043 422.503, 375 427.826, 375 432.227 C 375 436.912, 370.707 445.065, 364.887 451.434 C 359.475 457.355, 353.336 460.352, 339.368 463.891 C 324.674 467.614, 318.123 468.416, 316.202 466.728 C 315.266 465.906, 312.475 464.199, 310 462.936 C 304.797 460.281, 294.107 459.747, 290.073 461.940 C 288.738 462.666, 284.919 463.896, 281.586 464.674 C 273.797 466.491, 267.678 470.108, 264.512 474.767 C 260.966 479.986, 261.346 480.371, 266.696 476.978 C 271.656 473.832, 275.658 473.288, 280.755 475.065 C 283.474 476.012, 283.854 476.642, 284.219 480.815 C 284.552 484.612, 284.191 486.036, 282.315 488.327 C 281.042 489.881, 280 491.534, 280 491.999 C 280 492.464, 278.398 493.374, 276.440 494.020 C 267.688 496.908, 262.074 506.432, 263.525 515.929 L 264.223 520.500 266.460 515.464 C 268.661 510.511, 271.304 507.983, 275.753 506.576 C 277.537 506.012, 278.706 506.606, 281.371 509.432 C 285.374 513.676, 288.731 514.017, 297.343 511.054 L 303 509.108 303 512.131 C 303 514.094, 303.964 516.121, 305.750 517.911 C 307.262 519.427, 309.137 521.864, 309.915 523.327 C 312.517 528.215, 318.148 530.480, 324.982 529.387 C 329.007 528.743, 330.607 527, 327.174 527 C 326.170 527, 324.323 525.908, 323.070 524.574 C 320.781 522.138, 320.961 520, 323.455 520 C 326.044 520, 330.615 513.316, 333.804 504.868 C 336.758 497.041, 337.315 496.239, 340.471 495.270 C 343.811 494.245, 343.948 494.311, 344.981 497.442 C 345.567 499.217, 347.273 501.833, 348.773 503.255 C 351.809 506.132, 361.867 510, 366.314 510 C 371.121 510, 376.068 506.962, 379.135 502.126 C 382.742 496.439, 382.756 495.326, 379.189 497.865 C 374.798 500.992, 371.411 501.503, 369.543 499.321 C 367.413 496.833, 366.392 479.447, 368.243 477.187 C 369.882 475.187, 380.975 467, 382.047 467 C 382.502 467, 384.309 469.914, 386.063 473.477 C 388.793 479.023, 389.186 480.747, 388.793 485.480 C 388.362 490.681, 388.437 490.914, 390.075 489.432 C 393.517 486.317, 396.296 477.837, 396.909 468.580 C 397.574 458.548, 399.157 456.455, 401.122 463.014 C 402.029 466.040, 402.092 468.481, 401.355 472.078 C 400.800 474.785, 400.696 477, 401.122 477 C 402.395 477, 406.794 470.720, 408.976 465.788 C 410.095 463.257, 411.298 458.444, 411.648 455.093 C 411.998 451.742, 412.643 449, 413.081 449 C 414.220 449, 415.320 457.359, 414.549 460.151 C 413.949 462.324, 414.086 462.281, 416.375 459.578 C 419.233 456.203, 421 450.082, 421 443.557 C 421 439.364, 421.200 439, 423.497 439 C 427.672 439, 433.769 432.604, 435.601 426.302 C 436.472 423.304, 437.009 420.675, 436.793 420.460 C 436.578 420.245, 434.210 421.178, 431.531 422.534 C 428.853 423.890, 425.500 424.998, 424.081 424.996 C 418.467 424.988, 411.013 417.684, 411.004 412.184 C 410.999 409.239, 409.286 406, 407.734 406 C 407.077 406, 404.180 406.978, 401.296 408.173 C 396.847 410.017, 395.649 410.161, 393.378 409.126 L 390.702 407.907 391.351 397.298 C 391.708 391.463, 392 384.514, 392 381.857 L 392 377.025 397.462 380.519 C 404.057 384.738, 417.793 389.483, 428.009 391.072 C 447.870 394.161, 463.177 387.137, 469.195 372.174 C 471.132 367.358, 471.466 364.762, 471.402 355 C 471.339 345.369, 470.896 342.200, 468.676 335.500 C 463.719 320.539, 465.215 315.590, 478.279 303.730 C 487.551 295.312, 492.677 287.178, 495.472 276.448 C 497.182 269.883, 497.614 251.502, 496 254 C 495.467 254.825, 495.019 256.625, 495.006 258 C 494.973 261.243, 491.032 269.646, 487.682 273.612 C 486.237 275.323, 481.932 278.838, 478.116 281.421 C 469.631 287.166, 461.561 295.529, 459.015 301.215 C 456.634 306.534, 455.570 304.626, 456.184 296.136 C 456.802 287.593, 460.585 281.040, 472.276 268.266 C 488.468 250.575, 493.195 241.132, 493.198 226.478 C 493.199 222.066, 492.623 216.441, 491.917 213.978 L 490.635 209.500 489.887 215.664 C 488.637 225.977, 484.971 232.289, 474.008 243 C 459.191 257.478, 453.779 265.573, 448.869 280.598 L 446.614 287.500 445.384 283.500 C 443.797 278.341, 443.722 273.400, 445.130 266.799 C 446.916 258.426, 449.959 252.598, 461.279 235.867 C 473.336 218.048, 477.744 209.798, 482.201 196.711 C 491.064 170.687, 482.094 145.666, 460 134.787 C 453.074 131.377, 442.058 131.584, 435.834 135.243 C 429.799 138.790, 424.505 145.035, 422.116 151.421 C 421.072 154.214, 418.829 162.675, 417.134 170.222 C 413.730 185.370, 409.654 196.756, 402.619 210.764 C 400.061 215.856, 397.301 222.587, 396.484 225.721 C 394.531 233.221, 394.597 245.791, 396.627 252.846 C 399.577 263.098, 404.882 271.528, 402.426 262.061 C 399.789 251.896, 403.382 242.094, 413.885 230.798 C 417.617 226.784, 422.266 221.164, 424.217 218.309 C 428.199 212.482, 433.474 200.428, 434.527 194.750 C 435.577 189.090, 436.641 190.227, 437.340 197.754 C 437.967 204.491, 436.863 214.600, 434.952 219.625 C 433.162 224.335, 435.092 223.637, 440.495 217.620 C 450.176 206.840, 452.682 198.217, 449.591 186.328 C 445.912 172.183, 446.649 161.587, 451.532 158.387 C 455.014 156.106, 458.714 157.344, 463.573 162.415 C 472.480 171.711, 472.561 187.994, 463.787 205.448 C 462.113 208.776, 457.257 216.900, 452.995 223.500 C 435.587 250.455, 430.147 263.301, 429.281 279.500 C 428.959 285.528, 429.218 291.764, 429.934 295.200 C 430.623 298.509, 435.269 309.298, 441.014 320.929 C 451.483 342.125, 455.014 351.588, 454.978 358.355 C 454.938 365.844, 449.850 373.958, 442.959 377.521 C 437.971 380.101, 426.259 379.168, 418.752 375.594 C 412.319 372.531, 402.694 364.242, 400.385 359.778 C 399.552 358.166, 397.748 351.422, 396.376 344.791 C 392.276 324.962, 385.627 310.138, 374.938 296.988 C 363.752 283.227, 359.741 277.546, 356.765 271.248 C 353.507 264.355, 352.053 254.470, 353.843 251.387 C 354.834 249.682, 354.942 249.761, 354.970 252.215 C 355.008 255.674, 359.739 261.102, 366.853 265.848 C 374.442 270.911, 376.006 273.380, 376.816 281.577 L 377.500 288.500 379.638 285.500 C 382.393 281.636, 385 272.818, 385 267.368 C 385 260.618, 383.061 253.195, 378.841 243.793 C 374.414 233.931, 373.325 226.695, 374.454 214.645 C 375.168 207.030, 376.272 204.972, 377.350 209.250 C 377.990 211.794, 387.628 221.705, 388.558 220.775 C 388.890 220.443, 388.595 219.120, 387.902 217.836 C 387.208 216.551, 386.638 212.800, 386.633 209.499 C 386.624 202.451, 388.835 197.272, 397.795 183.351 C 405.815 170.892, 408.500 162.402, 408.500 149.500 C 408.500 138.194, 406.228 129.863, 401.001 122 L 398.010 117.500 405.320 116.885 C 414.269 116.131, 419.356 113.842, 422.561 109.125 C 425.799 104.360, 425.647 103.832, 421.532 105.551 C 416.737 107.555, 409.762 107.363, 401.500 105 C 397.654 103.900, 393.481 103, 392.228 103 C 390.026 103, 390 102.900, 391.474 100.050 C 392.313 98.427, 393 96.483, 393 95.730 C 393 94.976, 394.610 92.479, 396.578 90.180 C 399.998 86.185, 400.053 86.003, 397.828 86.079 C 396.548 86.122, 394.150 86.637, 392.500 87.223 M 108.412 92.619 C 107.510 97.425, 108.529 107.388, 110.511 113.133 C 112.332 118.414, 117.338 124.665, 121.836 127.276 L 124.897 129.052 127.333 121.276 C 128.673 116.999, 130.086 112.020, 130.473 110.211 L 131.176 106.922 127.865 108.936 C 125.649 110.283, 124.215 112.160, 123.527 114.610 C 122.962 116.624, 122.050 118.289, 121.500 118.311 C 120.950 118.332, 119.263 115.940, 117.750 112.996 C 115.370 108.362, 115 106.469, 115 98.928 C 115 91.904, 114.693 90.096, 113.418 89.607 C 110.204 88.374, 109.081 89.049, 108.412 92.619 M 220.020 92.960 C 218.621 95.704, 218.148 97.858, 218.629 99.307 C 219.232 101.127, 219.667 100.496, 221.186 95.591 C 223.398 88.447, 222.899 87.318, 220.020 92.960 M 101.662 101.500 C 97.724 106.211, 98.106 107.031, 103.050 104.474 C 105.314 103.304, 106 102.257, 106 99.974 C 106 98.338, 105.870 97, 105.712 97 C 105.553 97, 103.731 99.025, 101.662 101.500 M 118.252 104.500 C 118.263 106.700, 118.468 107.482, 118.707 106.238 C 118.946 104.994, 118.937 103.194, 118.687 102.238 C 118.437 101.282, 118.241 102.300, 118.252 104.500 M 193.630 106.250 C 192.333 111.090, 192.862 113, 195.500 113 C 196.875 113, 198 112.550, 198 112 C 198 109.985, 200.198 111.105, 204.935 115.536 C 210.334 120.586, 213.601 127.115, 214.761 135.171 L 215.524 140.479 220.012 141.129 C 222.481 141.487, 225.367 141.942, 226.427 142.140 C 229.824 142.775, 241.808 124.962, 245.607 113.633 C 247.721 107.327, 246.927 106.776, 236.500 107.311 C 228.715 107.710, 219.679 110.321, 215.496 113.379 C 213.709 114.686, 213.699 114.891, 215.301 117.336 C 216.959 119.868, 217.066 119.888, 221.147 118.448 C 223.432 117.642, 227.776 116.691, 230.799 116.336 L 236.295 115.690 235.585 118.595 C 234.236 124.113, 230.217 131.754, 226.498 135.870 C 224.446 138.142, 222.432 140, 222.023 140 C 221.614 140, 221.012 137.745, 220.685 134.989 C 219.841 127.862, 214.841 118.030, 209.608 113.206 C 206.019 109.898, 196.436 104, 194.650 104 C 194.421 104, 193.962 105.013, 193.630 106.250 M 205 104.507 C 205 106.062, 207.237 109.057, 209.173 110.093 L 211.301 111.231 209.104 108.146 C 206.885 105.029, 205 103.358, 205 104.507 M 166.316 115.943 C 161.165 118.282, 158.683 122.602, 159.159 128.399 L 159.500 132.547 155.921 132.546 C 151.243 132.545, 147.504 135.091, 145.013 139.975 C 140.154 149.498, 144.476 158.790, 155.722 162.997 C 158.666 164.099, 162.693 165, 164.669 165 C 168.319 165, 174.413 168.029, 175.274 170.270 C 175.613 171.154, 174.555 171.404, 171.509 171.160 C 166.748 170.778, 159.735 173.757, 158.070 176.870 C 157.168 178.554, 157.598 178.795, 162.538 179.376 C 168.302 180.053, 176 182.688, 176 183.984 C 176 184.405, 174.687 185.013, 173.082 185.334 C 171.477 185.655, 168.552 187.332, 166.582 189.062 C 162.707 192.464, 161.767 194.730, 164.934 193.035 C 168.598 191.074, 175.241 191.878, 182 195.099 C 185.791 196.906, 190.848 198.418, 194.133 198.727 L 199.766 199.257 197.435 202.691 C 194.625 206.832, 193.541 213.168, 194.427 220.265 C 195.128 225.870, 196.956 230.289, 196.985 226.446 C 197.007 223.437, 201.670 214.755, 204.263 212.895 C 205.493 212.012, 207.463 210.985, 208.641 210.612 L 210.781 209.935 208.661 214.217 C 205.477 220.647, 205.170 230.654, 207.979 236.456 C 210.359 241.373, 211.527 242.064, 212.465 239.111 C 212.794 238.073, 214.153 236.048, 215.484 234.611 C 218.299 231.574, 223.283 231.109, 226.779 233.558 C 229.386 235.384, 228.737 235.713, 241.482 226.102 C 252.253 217.980, 259 212.188, 259 211.062 C 259 210.674, 256.863 209.384, 254.250 208.196 C 242.431 202.819, 231.553 191.118, 222.921 174.500 C 216.939 162.981, 215.026 161.053, 209.547 161.022 L 205.594 161 209.256 157.250 L 212.918 153.500 205.209 153.591 C 200.969 153.641, 196.488 154.009, 195.250 154.409 C 192.027 155.449, 192.426 154.432, 197.420 148.878 C 203.425 142.199, 206.153 136.253, 206.212 129.716 C 206.288 121.280, 202.344 115.819, 195.134 114.377 C 191.867 113.723, 186.851 115.946, 184.716 118.995 C 183.315 120.995, 183.306 120.995, 181.405 118.863 C 179.462 116.682, 174.096 113.982, 171.782 114.022 C 171.077 114.034, 168.617 114.899, 166.316 115.943 M 326.500 115.664 C 321.076 116.385, 315.997 119.164, 315.343 121.769 C 314.951 123.330, 315.231 124.532, 316.115 125.092 C 318.388 126.532, 319.760 126.150, 323.215 123.116 C 327.318 119.514, 332.514 118.037, 341.500 117.920 C 346.335 117.856, 347.727 117.593, 346 117.068 C 342.676 116.056, 330.267 115.163, 326.500 115.664 M 103.750 116.689 C 101.037 117.398, 101.623 119.300, 106.590 125.907 C 113.480 135.073, 120.706 140.463, 129.250 142.809 C 132.850 143.798, 133 143.740, 133 141.367 C 133 137.562, 129.943 125, 129.018 125 C 127.385 125, 126.041 130.977, 127.067 133.676 C 127.611 135.107, 127.905 136.428, 127.721 136.612 C 127.116 137.218, 119.584 131.812, 115.187 127.616 C 112.815 125.352, 109.919 121.813, 108.753 119.750 C 107.586 117.688, 106.377 116.052, 106.066 116.116 C 105.755 116.180, 104.713 116.438, 103.750 116.689 M 88.826 122.750 C 87.268 126.564, 87.127 155.515, 88.660 157.055 C 90.359 158.761, 97.857 153.286, 104.108 145.775 C 110.889 137.627, 111.857 135.428, 109.641 133.213 C 108.339 131.912, 107.744 131.798, 107.162 132.738 C 105.134 136.019, 95.508 147, 94.661 147 C 93.494 147, 94.480 127.997, 95.893 123.250 C 96.853 120.024, 96.835 120, 93.405 120 C 90.576 120, 89.747 120.498, 88.826 122.750 M 223.687 124.805 C 222.209 126.347, 221.014 128.485, 221.032 129.555 C 221.063 131.459, 221.096 131.458, 222.608 129.500 C 224.364 127.226, 227.224 122, 226.713 122 C 226.527 122, 225.165 123.262, 223.687 124.805 M 332.391 124.421 C 333.209 127.682, 332.186 130, 329.928 130 C 327.888 130, 326.011 127.222, 326.718 125.250 C 327.381 123.402, 324.318 123.729, 323.607 125.582 C 322.133 129.424, 323.001 133.856, 325.635 135.927 C 329.049 138.613, 332.273 138.554, 335.389 135.750 C 338.992 132.509, 339.264 127.264, 336 124 C 333.252 121.252, 331.643 121.440, 332.391 124.421 M 100.744 130.964 C 99.907 134.284, 99.376 137, 99.564 137 C 99.751 137, 101.259 135.030, 102.916 132.622 C 105.818 128.404, 105.861 128.184, 104.096 126.587 C 102.349 125.006, 102.194 125.208, 100.744 130.964 M 191.446 128.104 C 190.247 130.423, 190.018 132.497, 190.541 136.301 L 191.242 141.395 195.121 137.236 C 197.739 134.430, 199 132.154, 199 130.239 C 199 124.505, 194.033 123.102, 191.446 128.104 M 172 132 C 169.022 134.978, 169.498 136.627, 174.978 142.324 L 179.957 147.500 179.978 142.315 C 180.008 135.094, 177.877 130.079, 174.750 130.015 C 174.338 130.007, 173.100 130.900, 172 132 M 239.515 138.750 C 239.917 139.713, 241.795 144.765, 243.689 149.978 C 245.584 155.191, 247.666 160.102, 248.317 160.891 C 250.476 163.508, 257.402 165.815, 265.250 166.529 L 273 167.235 273 162.138 C 273 157.170, 272.895 156.987, 268.864 154.931 C 266.590 153.770, 261.798 150.334, 258.215 147.295 C 249.158 139.612, 237.690 134.371, 239.515 138.750 M 135 141.109 C 135 143.060, 135.855 145.281, 137.127 146.635 L 139.253 148.898 136.785 149.518 C 133.305 150.391, 122.472 147.389, 116.191 143.811 C 113.271 142.147, 110.744 140.946, 110.576 141.143 C 110.408 141.339, 109.752 142.497, 109.119 143.716 C 107.752 146.344, 108.639 147.068, 119.500 152.181 C 125.368 154.944, 127.658 155.479, 133.664 155.489 C 137.604 155.495, 141.029 155.275, 141.274 155 C 141.520 154.725, 141.501 151.800, 141.232 148.500 C 140.818 143.404, 140.311 142.150, 137.872 140.174 L 135 137.848 135 141.109 M 123.500 144 C 124.495 145.100, 125.535 146, 125.810 146 C 126.085 146, 125.495 145.100, 124.500 144 C 123.505 142.900, 122.465 142, 122.190 142 C 121.915 142, 122.505 142.900, 123.500 144 M 202.332 145.387 L 200.164 148.891 208.332 148.319 C 216.399 147.753, 227.400 149.220, 228.506 151.009 C 228.803 151.490, 225.871 153.770, 221.991 156.075 C 215.096 160.171, 214.985 160.301, 217.107 161.787 C 219.118 163.196, 219.730 163.063, 225.389 159.987 C 233.487 155.586, 240 151.124, 240 149.978 C 240 147.197, 225.969 143.228, 213.338 142.437 L 204.500 141.883 202.332 145.387 M 156.544 145.344 C 153.998 147.206, 155.209 151.749, 158.593 153.035 C 161.843 154.271, 168.063 154.252, 170 153 C 170.825 152.467, 171.001 152.024, 170.391 152.015 C 169.781 152.007, 167.237 150.200, 164.737 148 C 159.708 143.573, 159.194 143.406, 156.544 145.344 M 102.174 151.314 C 100.978 152.587, 100 154.364, 100 155.262 C 100 158.605, 106.302 174.156, 109.915 179.730 C 115.821 188.841, 116.381 189.045, 119.967 183.391 C 123.808 177.334, 126.719 169.596, 127.570 163.182 C 128.151 158.801, 127.983 158.061, 126.182 157.097 C 123.316 155.564, 123.323 155.558, 122.743 159.876 C 122.458 162.007, 120.951 166.588, 119.395 170.056 L 116.565 176.360 111.834 166.461 C 109.231 161.017, 106.814 154.861, 106.463 152.781 C 105.719 148.377, 105.125 148.174, 102.174 151.314 M 115.058 155.250 C 115.089 156.488, 115.441 159.300, 115.839 161.500 C 116.659 166.036, 117.441 164.914, 118.533 157.628 C 119.172 153.365, 119.060 153, 117.114 153 C 115.571 153, 115.016 153.608, 115.058 155.250 M 134.762 158.707 C 136.006 158.946, 137.806 158.937, 138.762 158.687 C 139.718 158.437, 138.700 158.241, 136.500 158.252 C 134.300 158.263, 133.518 158.468, 134.762 158.707 M 278.945 161.644 C 278.392 163.098, 277.702 164.673, 277.411 165.144 C 277.120 165.615, 277.540 166, 278.343 166 C 279.147 166, 280.298 164.583, 280.902 162.851 C 282.243 159.005, 282.243 159, 280.975 159 C 280.412 159, 279.498 160.190, 278.945 161.644 M 286.171 162.624 C 286.492 165.429, 286.672 165.513, 293.500 166.013 C 297.350 166.296, 301.424 167.052, 302.554 167.694 C 304.780 168.958, 307.668 167.889, 306.617 166.190 C 305.886 165.006, 295.365 161.426, 289.671 160.422 C 285.915 159.761, 285.849 159.802, 286.171 162.624 M 138.357 163.742 C 130.985 164.046, 130.159 164.283, 129.646 166.245 C 129.334 167.437, 129.327 168.657, 129.631 168.956 C 130.911 170.219, 145.693 169.187, 149.500 167.569 C 153.301 165.954, 153.403 165.798, 151.559 164.435 C 150.491 163.646, 148.916 163.092, 148.059 163.204 C 147.201 163.315, 142.835 163.558, 138.357 163.742 M 154 169 C 154 170.201, 158.705 170.201, 161.500 169 C 163.005 168.353, 162.324 168.123, 158.750 168.070 C 156.137 168.032, 154 168.450, 154 169 M 146.012 170.750 C 146.019 171.162, 147.137 175.520, 148.496 180.433 C 149.855 185.346, 150.758 189.576, 150.502 189.832 C 149.861 190.472, 143.268 185.806, 134.982 178.848 C 128.586 173.478, 127.975 173.179, 127.027 174.950 C 126.462 176.005, 126 177.461, 126.001 178.184 C 126.002 180.451, 153.775 202, 156.695 202 C 159.217 202, 158.280 189.897, 154.953 179.512 C 152.012 170.331, 151.803 170, 148.953 170 C 147.329 170, 146.006 170.338, 146.012 170.750 M 138.989 175.986 C 143.020 181.076, 144.446 181.995, 143.474 178.875 C 141.550 172.705, 141.033 172, 138.441 172 L 135.832 172 138.989 175.986 M 160.190 192.714 C 160.492 196.339, 160.664 196.485, 167.290 198.752 C 173.946 201.030, 183.193 203.140, 183.811 202.522 C 183.983 202.351, 182.699 200.588, 180.958 198.605 C 177.825 195.037, 177.713 195, 169.896 195 L 162 195 162 192 C 162 190.350, 161.523 189, 160.940 189 C 160.327 189, 160.010 190.569, 160.190 192.714 M 259.081 319.582 C 252.043 322.142, 239.989 329.172, 235.681 333.227 L 231.723 336.954 232.243 343.437 C 232.837 350.838, 234.951 355.034, 244.294 367.355 C 250.557 375.615, 251.336 378.312, 248.644 382.421 C 246.470 385.738, 234.284 391.558, 224.457 393.972 C 208.327 397.934, 196.987 397.631, 186.097 392.946 C 180.409 390.500, 178.886 387.750, 176.900 376.348 C 175.940 370.836, 175.078 368.878, 172.455 366.255 C 170.451 364.251, 168.201 363, 166.600 363 C 165.170 363, 164 362.566, 164 362.035 C 164 359.982, 157.730 354.066, 154.383 352.961 C 150.098 351.547, 149.360 352.094, 151.384 355.183 C 152.234 356.479, 153.222 360.034, 153.580 363.083 C 154.107 367.566, 153.843 369.388, 152.199 372.610 C 151.081 374.800, 149.864 378.206, 149.495 380.176 C 149.044 382.577, 148.044 384.114, 146.465 384.834 C 145.168 385.425, 142.396 387.391, 140.304 389.204 C 138.212 391.017, 134.309 393.604, 131.630 394.953 C 128.800 396.378, 125.802 398.891, 124.472 400.953 C 121.733 405.197, 120.447 410.540, 121.941 411.464 C 122.524 411.824, 123 411.495, 123 410.733 C 123 407.913, 127.812 404.724, 132.792 404.246 C 137.572 403.787, 137.737 403.867, 143.222 409.352 C 148.103 414.233, 148.602 415.085, 147.238 416.213 C 145.161 417.930, 141.022 426.927, 141.010 429.750 C 140.998 432.525, 142.569 432.674, 143.983 430.031 C 144.563 428.949, 147.051 426.882, 149.513 425.440 L 153.989 422.816 158.559 425.029 C 164.278 427.797, 168.112 427.290, 174.268 422.951 C 179.433 419.309, 182.711 419.450, 181.539 423.262 C 181.161 424.493, 180.610 427.565, 180.314 430.089 C 179.830 434.218, 180.052 434.896, 182.523 436.839 C 184.034 438.028, 185.940 439, 186.760 439 C 188.796 439, 187.727 444.170, 184.858 448.199 L 182.700 451.230 185.100 450.499 C 188.357 449.507, 193.318 445.687, 196.158 441.986 C 197.446 440.307, 199.942 437.408, 201.705 435.545 C 204.079 433.035, 205.083 430.858, 205.574 427.153 L 206.238 422.150 213.646 421.825 L 221.054 421.500 220.589 424 C 220.334 425.375, 219.842 429.069, 219.495 432.209 C 219.103 435.773, 217.955 439.261, 216.440 441.493 C 214.410 444.485, 214.260 445.163, 215.525 445.648 C 217.780 446.513, 222.716 444.126, 225.492 440.827 C 226.841 439.224, 229.783 434.379, 232.030 430.059 C 234.278 425.739, 237.058 421.371, 238.208 420.352 L 240.299 418.500 239.672 423.230 C 239.147 427.185, 237.890 430.862, 235.184 436.355 C 234.460 437.825, 239.392 435.869, 241.676 433.780 C 242.873 432.686, 245.895 428.273, 248.393 423.975 C 250.891 419.676, 253.470 415.827, 254.125 415.423 C 255.947 414.297, 254.515 424.047, 252.035 429.654 C 250.902 432.214, 250.183 434.516, 250.435 434.769 C 251.332 435.666, 257.968 430.828, 260.828 427.192 C 262.426 425.161, 265.200 420.887, 266.993 417.694 L 270.254 411.888 271.986 414.737 C 274.271 418.494, 277.946 420.808, 282.882 421.597 C 288.620 422.515, 291.774 421.418, 294.027 417.723 C 296.756 413.248, 296.522 412.342, 292.750 412.773 C 288.546 413.253, 285 410.119, 285 405.921 C 285 402.802, 287.919 396.237, 291.137 392.115 C 293.526 389.057, 293.491 386.893, 291 383.727 C 288.265 380.251, 288.480 378.615, 292.067 375.597 C 296.558 371.818, 304.945 369.747, 318.442 369.086 L 330.383 368.500 332.841 362.500 C 336.424 353.754, 336.909 342.352, 334.092 333.079 C 331.814 325.576, 331.719 325.509, 325.500 327.018 C 319.128 328.564, 300.992 328.274, 293.362 326.504 C 289.601 325.632, 283.819 323.549, 280.512 321.874 C 273.096 318.119, 265.372 317.293, 259.081 319.582 M 1.762 531.707 C 3.006 531.946, 4.806 531.937, 5.762 531.687 C 6.718 531.437, 5.700 531.241, 3.500 531.252 C 1.300 531.263, 0.518 531.468, 1.762 531.707 M 12.750 531.737 C 15.638 531.939, 20.363 531.939, 23.250 531.737 C 26.138 531.535, 23.775 531.370, 18 531.370 C 12.225 531.370, 9.863 531.535, 12.750 531.737 " stroke="none" fill="black" fill-rule="evenodd"/>
</svg>