<svg width="148" height="148" viewBox="0 0 148 148" fill="none" xmlns="http://www.w3.org/2000/svg">
<g clip-path="url(#clip0_1_66)">
<g clip-path="url(#clip1_1_66)">
<path d="M128.279 60.3291C119.305 55.1484 108.848 53.7715 98.8384 56.4541C89.1921 59.0386 81.0814 65.1015 75.8668 73.5693C86.8386 93.8828 79.7034 119.453 59.5847 131.069C52.8509 134.956 45.4846 136.804 38.2164 136.804C37.4789 136.804 36.7415 136.771 36.0064 136.732C46.9898 143.261 59.8088 147.022 73.511 147.022C110.633 147.022 141.309 119.501 146.296 83.7523C143.701 74.2134 137.497 65.6523 128.279 60.3291Z" fill="#2E6B61"/>
<path d="M73.511 -3.05176e-05C63.7807 -3.05176e-05 54.502 1.90775 46.0027 5.3406C39.0285 12.358 34.7123 22.0206 34.7123 32.6715C34.7123 53.6863 51.5102 70.84 72.3838 71.441C78.1457 62.0759 87.114 55.3689 97.7812 52.5101C108.845 49.5464 120.402 51.0667 130.321 56.7936C137.728 61.0712 143.367 67.245 147.001 74.3464C147.002 74.0663 147.022 73.791 147.022 73.5109C147.022 32.9119 114.111 -3.05176e-05 73.511 -3.05176e-05Z" fill="#2E6B61"/>
<path d="M57.5416 127.532C75.742 117.024 82.1969 93.898 72.2811 75.5214C49.2033 74.8668 30.6284 55.9033 30.6284 32.6715C30.6284 24.1104 33.1604 16.1316 37.5023 9.43039C15.1234 22.0323 0 45.998 0 73.5109C0 97.0426 11.0687 117.973 28.2702 131.428C37.822 133.945 48.3294 132.849 57.5416 127.532Z" fill="#2E6B61"/>
</g>
</g>
<defs>
<clipPath id="clip0_1_66">
<rect width="147.022" height="147.022" fill="white"/>
</clipPath>
<clipPath id="clip1_1_66">
<rect width="147.022" height="147.022" fill="white"/>
</clipPath>
</defs>
</svg>
